<svg width="85" height="20" viewBox="0 0 85 20" fill="none" xmlns="http://www.w3.org/2000/svg">
<mask id="path-1-outside-1_11002_1231" maskUnits="userSpaceOnUse" x="0" y="0" width="85" height="20" fill="black">
<rect fill="white" width="85" height="20"/>
<path d="M1.9173 2.622H7.83531C9.49264 2.622 10.798 3.04 11.7513 3.876C12.7193 4.69733 13.2033 5.87067 13.2033 7.396C13.2033 8.95067 12.7266 10.1313 11.7733 10.938C10.82 11.73 9.50731 12.126 7.83531 12.126H4.1613V18H1.9173V2.622ZM7.5933 10.256C8.61997 10.256 9.43397 10.0433 10.0353 9.618C10.6366 9.19267 10.9373 8.452 10.9373 7.396C10.9373 6.34 10.6366 5.59933 10.0353 5.174C9.43397 4.734 8.61997 4.514 7.5933 4.514H4.1613V10.256H7.5933ZM18.6017 18.33C17.1791 18.33 16.1011 17.9487 15.3677 17.186C14.6491 16.4233 14.2897 15.404 14.2897 14.128V7.44H16.5117V14.04C16.5117 15.7267 17.3551 16.57 19.0417 16.57C20.5231 16.57 21.6817 15.9027 22.5177 14.568V7.44H24.7397V18H22.5837V16.504C22.0851 17.1347 21.4911 17.5967 20.8017 17.89C20.1271 18.1833 19.3937 18.33 18.6017 18.33ZM34.1471 18.33C33.1938 18.33 32.3651 18.1833 31.6611 17.89C30.9718 17.582 30.3338 17.1053 29.7471 16.46V18H27.5911V1.742H29.8131V8.848C30.2971 8.276 30.9205 7.84333 31.6831 7.55C32.4458 7.25667 33.2671 7.11 34.1471 7.11C35.2031 7.11 36.1491 7.352 36.9851 7.836C37.8358 8.30533 38.4958 8.96533 38.9651 9.816C39.4491 10.6667 39.6911 11.642 39.6911 12.742C39.6911 13.8567 39.4491 14.8393 38.9651 15.69C38.4958 16.526 37.8358 17.1787 36.9851 17.648C36.1491 18.1027 35.2031 18.33 34.1471 18.33ZM33.6411 16.57C34.3598 16.57 35.0051 16.416 35.5771 16.108C36.1638 15.7853 36.6185 15.3307 36.9411 14.744C37.2785 14.1573 37.4471 13.49 37.4471 12.742C37.4471 11.994 37.2785 11.3267 36.9411 10.74C36.6185 10.1533 36.1638 9.69867 35.5771 9.376C35.0051 9.05333 34.3598 8.892 33.6411 8.892C32.7465 8.892 31.9471 9.134 31.2431 9.618C30.5391 10.102 30.0625 10.7473 29.8131 11.554V13.93C30.0918 14.7367 30.5685 15.382 31.2431 15.866C31.9325 16.3353 32.7318 16.57 33.6411 16.57ZM42.1146 1.742H44.3366V18H42.1146V1.742ZM48.5044 5.372C48.1377 5.372 47.8297 5.24733 47.5804 4.998C47.331 4.74867 47.2064 4.44067 47.2064 4.074C47.2064 3.70733 47.331 3.39933 47.5804 3.15C47.8297 2.90067 48.1377 2.776 48.5044 2.776C48.8857 2.776 49.201 2.90067 49.4504 3.15C49.7144 3.39933 49.8464 3.70733 49.8464 4.074C49.8464 4.44067 49.7144 4.74867 49.4504 4.998C49.201 5.24733 48.8857 5.372 48.5044 5.372ZM47.3824 7.44H49.6484V18H47.3824V7.44ZM58.2724 18.33C57.099 18.33 56.0577 18.11 55.1484 17.67C54.239 17.23 53.5277 16.592 53.0144 15.756C52.5157 14.9053 52.2664 13.9007 52.2664 12.742C52.2664 11.5833 52.5157 10.586 53.0144 9.75C53.5277 8.89933 54.239 8.24667 55.1484 7.792C56.0724 7.33733 57.1284 7.11 58.3164 7.11C59.9297 7.11 61.2204 7.42533 62.1884 8.056V9.882C61.235 9.222 60.0177 8.892 58.5364 8.892C57.3337 8.892 56.3584 9.222 55.6104 9.882C54.877 10.5273 54.5104 11.4807 54.5104 12.742C54.5104 14.0033 54.877 14.9567 55.6104 15.602C56.3437 16.2473 57.3044 16.57 58.4924 16.57C59.9737 16.57 61.2497 16.218 62.3204 15.514V17.318C61.807 17.67 61.2204 17.9267 60.5604 18.088C59.915 18.2493 59.1524 18.33 58.2724 18.33ZM68.4142 18.33C67.1382 18.33 66.1115 18.0073 65.3342 17.362C64.5715 16.702 64.1902 15.8147 64.1902 14.7C64.1902 13.5267 64.5569 12.6247 65.2902 11.994C66.0382 11.3487 67.0942 11.026 68.4582 11.026C69.9102 11.026 71.1422 11.3193 72.1542 11.906V11.356C72.1542 10.52 71.8975 9.904 71.3842 9.508C70.8855 9.09733 70.0935 8.892 69.0082 8.892C68.3629 8.892 67.7322 8.958 67.1162 9.09C66.5149 9.20733 65.9722 9.376 65.4882 9.596V7.792C65.9282 7.58667 66.5002 7.42533 67.2042 7.308C67.9082 7.176 68.5902 7.11 69.2502 7.11C70.9955 7.11 72.2862 7.49867 73.1222 8.276C73.9729 9.03867 74.3982 10.102 74.3982 11.466V18H72.3082V16.812C71.8535 17.3107 71.3109 17.692 70.6802 17.956C70.0642 18.2053 69.3089 18.33 68.4142 18.33ZM68.9642 16.636C69.6682 16.636 70.3062 16.4967 70.8782 16.218C71.4502 15.9393 71.8755 15.5507 72.1542 15.052V13.622C71.2009 13.006 70.1375 12.698 68.9642 12.698C68.1135 12.698 67.4755 12.8667 67.0502 13.204C66.6395 13.5267 66.4342 14.0253 66.4342 14.7C66.4342 15.9907 67.2775 16.636 68.9642 16.636ZM77.1556 7.44H79.3116V9.332C79.7516 8.68667 80.3676 8.21 81.1596 7.902C81.9663 7.594 82.8976 7.44 83.9536 7.44V9.178C82.8243 9.178 81.8563 9.36133 81.0496 9.728C80.2429 10.0947 79.6856 10.674 79.3776 11.466V18H77.1556V7.44Z"/>
</mask>
<path d="M1.9173 2.622H7.83531C9.49264 2.622 10.798 3.04 11.7513 3.876C12.7193 4.69733 13.2033 5.87067 13.2033 7.396C13.2033 8.95067 12.7266 10.1313 11.7733 10.938C10.82 11.73 9.50731 12.126 7.83531 12.126H4.1613V18H1.9173V2.622ZM7.5933 10.256C8.61997 10.256 9.43397 10.0433 10.0353 9.618C10.6366 9.19267 10.9373 8.452 10.9373 7.396C10.9373 6.34 10.6366 5.59933 10.0353 5.174C9.43397 4.734 8.61997 4.514 7.5933 4.514H4.1613V10.256H7.5933ZM18.6017 18.33C17.1791 18.33 16.1011 17.9487 15.3677 17.186C14.6491 16.4233 14.2897 15.404 14.2897 14.128V7.44H16.5117V14.04C16.5117 15.7267 17.3551 16.57 19.0417 16.57C20.5231 16.57 21.6817 15.9027 22.5177 14.568V7.44H24.7397V18H22.5837V16.504C22.0851 17.1347 21.4911 17.5967 20.8017 17.89C20.1271 18.1833 19.3937 18.33 18.6017 18.33ZM34.1471 18.33C33.1938 18.33 32.3651 18.1833 31.6611 17.89C30.9718 17.582 30.3338 17.1053 29.7471 16.46V18H27.5911V1.742H29.8131V8.848C30.2971 8.276 30.9205 7.84333 31.6831 7.55C32.4458 7.25667 33.2671 7.11 34.1471 7.11C35.2031 7.11 36.1491 7.352 36.9851 7.836C37.8358 8.30533 38.4958 8.96533 38.9651 9.816C39.4491 10.6667 39.6911 11.642 39.6911 12.742C39.6911 13.8567 39.4491 14.8393 38.9651 15.69C38.4958 16.526 37.8358 17.1787 36.9851 17.648C36.1491 18.1027 35.2031 18.33 34.1471 18.33ZM33.6411 16.57C34.3598 16.57 35.0051 16.416 35.5771 16.108C36.1638 15.7853 36.6185 15.3307 36.9411 14.744C37.2785 14.1573 37.4471 13.49 37.4471 12.742C37.4471 11.994 37.2785 11.3267 36.9411 10.74C36.6185 10.1533 36.1638 9.69867 35.5771 9.376C35.0051 9.05333 34.3598 8.892 33.6411 8.892C32.7465 8.892 31.9471 9.134 31.2431 9.618C30.5391 10.102 30.0625 10.7473 29.8131 11.554V13.93C30.0918 14.7367 30.5685 15.382 31.2431 15.866C31.9325 16.3353 32.7318 16.57 33.6411 16.57ZM42.1146 1.742H44.3366V18H42.1146V1.742ZM48.5044 5.372C48.1377 5.372 47.8297 5.24733 47.5804 4.998C47.331 4.74867 47.2064 4.44067 47.2064 4.074C47.2064 3.70733 47.331 3.39933 47.5804 3.15C47.8297 2.90067 48.1377 2.776 48.5044 2.776C48.8857 2.776 49.201 2.90067 49.4504 3.15C49.7144 3.39933 49.8464 3.70733 49.8464 4.074C49.8464 4.44067 49.7144 4.74867 49.4504 4.998C49.201 5.24733 48.8857 5.372 48.5044 5.372ZM47.3824 7.44H49.6484V18H47.3824V7.44ZM58.2724 18.33C57.099 18.33 56.0577 18.11 55.1484 17.67C54.239 17.23 53.5277 16.592 53.0144 15.756C52.5157 14.9053 52.2664 13.9007 52.2664 12.742C52.2664 11.5833 52.5157 10.586 53.0144 9.75C53.5277 8.89933 54.239 8.24667 55.1484 7.792C56.0724 7.33733 57.1284 7.11 58.3164 7.11C59.9297 7.11 61.2204 7.42533 62.1884 8.056V9.882C61.235 9.222 60.0177 8.892 58.5364 8.892C57.3337 8.892 56.3584 9.222 55.6104 9.882C54.877 10.5273 54.5104 11.4807 54.5104 12.742C54.5104 14.0033 54.877 14.9567 55.6104 15.602C56.3437 16.2473 57.3044 16.57 58.4924 16.57C59.9737 16.57 61.2497 16.218 62.3204 15.514V17.318C61.807 17.67 61.2204 17.9267 60.5604 18.088C59.915 18.2493 59.1524 18.33 58.2724 18.33ZM68.4142 18.33C67.1382 18.33 66.1115 18.0073 65.3342 17.362C64.5715 16.702 64.1902 15.8147 64.1902 14.7C64.1902 13.5267 64.5569 12.6247 65.2902 11.994C66.0382 11.3487 67.0942 11.026 68.4582 11.026C69.9102 11.026 71.1422 11.3193 72.1542 11.906V11.356C72.1542 10.52 71.8975 9.904 71.3842 9.508C70.8855 9.09733 70.0935 8.892 69.0082 8.892C68.3629 8.892 67.7322 8.958 67.1162 9.09C66.5149 9.20733 65.9722 9.376 65.4882 9.596V7.792C65.9282 7.58667 66.5002 7.42533 67.2042 7.308C67.9082 7.176 68.5902 7.11 69.2502 7.11C70.9955 7.11 72.2862 7.49867 73.1222 8.276C73.9729 9.03867 74.3982 10.102 74.3982 11.466V18H72.3082V16.812C71.8535 17.3107 71.3109 17.692 70.6802 17.956C70.0642 18.2053 69.3089 18.33 68.4142 18.33ZM68.9642 16.636C69.6682 16.636 70.3062 16.4967 70.8782 16.218C71.4502 15.9393 71.8755 15.5507 72.1542 15.052V13.622C71.2009 13.006 70.1375 12.698 68.9642 12.698C68.1135 12.698 67.4755 12.8667 67.0502 13.204C66.6395 13.5267 66.4342 14.0253 66.4342 14.7C66.4342 15.9907 67.2775 16.636 68.9642 16.636ZM77.1556 7.44H79.3116V9.332C79.7516 8.68667 80.3676 8.21 81.1596 7.902C81.9663 7.594 82.8976 7.44 83.9536 7.44V9.178C82.8243 9.178 81.8563 9.36133 81.0496 9.728C80.2429 10.0947 79.6856 10.674 79.3776 11.466V18H77.1556V7.44Z" fill="#81FE88"/>
<path d="M1.9173 2.622V1.622H0.917305V2.622H1.9173ZM11.7513 3.876L11.092 4.62786L11.0981 4.63323L11.1043 4.63851L11.7513 3.876ZM11.7733 10.938L12.4124 11.7072L12.4192 11.7014L11.7733 10.938ZM4.1613 12.126V11.126H3.1613V12.126H4.1613ZM4.1613 18V19H5.1613V18H4.1613ZM1.9173 18H0.917305V19H1.9173V18ZM10.0353 9.618L10.6128 10.4344L10.6128 10.4344L10.0353 9.618ZM10.0353 5.174L9.44479 5.98103L9.45128 5.98578L9.45784 5.99042L10.0353 5.174ZM4.1613 4.514V3.514H3.1613V4.514H4.1613ZM4.1613 10.256H3.1613V11.256H4.1613V10.256ZM1.9173 3.622H7.83531V1.622H1.9173V3.622ZM7.83531 3.622C9.32606 3.622 10.3711 3.99568 11.092 4.62786L12.4106 3.12414C11.2249 2.08432 9.65922 1.622 7.83531 1.622V3.622ZM11.1043 4.63851C11.8031 5.23143 12.2033 6.09928 12.2033 7.396H14.2033C14.2033 5.64205 13.6355 4.16324 12.3983 3.11349L11.1043 4.63851ZM12.2033 7.396C12.2033 8.73484 11.8025 9.60331 11.1274 10.1746L12.4192 11.7014C13.6507 10.6594 14.2033 9.1665 14.2033 7.396H12.2033ZM11.1343 10.1688C10.4146 10.7667 9.3555 11.126 7.83531 11.126V13.126C9.65911 13.126 11.2253 12.6933 12.4123 11.7072L11.1343 10.1688ZM7.83531 11.126H4.1613V13.126H7.83531V11.126ZM3.1613 12.126V18H5.1613V12.126H3.1613ZM4.1613 17H1.9173V19H4.1613V17ZM2.9173 18V2.622H0.917305V18H2.9173ZM7.5933 11.256C8.74772 11.256 9.7878 11.0179 10.6128 10.4344L9.45784 8.80158C9.08014 9.06874 8.49222 9.256 7.5933 9.256V11.256ZM10.6128 10.4344C11.5817 9.7491 11.9373 8.62644 11.9373 7.396H9.93731C9.93731 8.27756 9.69162 8.63623 9.45784 8.80158L10.6128 10.4344ZM11.9373 7.396C11.9373 6.16556 11.5817 5.0429 10.6128 4.35758L9.45784 5.99042C9.69162 6.15577 9.93731 6.51444 9.93731 7.396H11.9373ZM10.6258 4.36697C9.79908 3.76204 8.75378 3.514 7.5933 3.514V5.514C8.48616 5.514 9.06886 5.70596 9.44479 5.98103L10.6258 4.36697ZM7.5933 3.514H4.1613V5.514H7.5933V3.514ZM3.1613 4.514V10.256H5.1613V4.514H3.1613ZM4.1613 11.256H7.5933V9.256H4.1613V11.256ZM15.3677 17.186L14.6399 17.8718L14.6469 17.8791L15.3677 17.186ZM14.2897 7.44V6.44H13.2897V7.44H14.2897ZM16.5117 7.44H17.5117V6.44H16.5117V7.44ZM22.5177 14.568L23.3652 15.0988L23.5177 14.8553V14.568H22.5177ZM22.5177 7.44V6.44H21.5177V7.44H22.5177ZM24.7397 7.44H25.7397V6.44H24.7397V7.44ZM24.7397 18V19H25.7397V18H24.7397ZM22.5837 18H21.5837V19H22.5837V18ZM22.5837 16.504H23.5837V13.627L21.7993 15.8838L22.5837 16.504ZM20.8017 17.89L20.4102 16.9698L20.403 16.9729L20.8017 17.89ZM18.6017 17.33C17.3539 17.33 16.5752 16.999 16.0886 16.4929L14.6469 17.8791C15.6269 18.8983 17.0042 19.33 18.6017 19.33V17.33ZM16.0955 16.5002C15.5881 15.9617 15.2897 15.2076 15.2897 14.128H13.2897C13.2897 15.6004 13.71 16.8849 14.6399 17.8718L16.0955 16.5002ZM15.2897 14.128V7.44H13.2897V14.128H15.2897ZM14.2897 8.44H16.5117V6.44H14.2897V8.44ZM15.5117 7.44V14.04H17.5117V7.44H15.5117ZM15.5117 14.04C15.5117 15.0375 15.7618 15.9693 16.4371 16.6446C17.1125 17.32 18.0442 17.57 19.0417 17.57V15.57C18.3525 15.57 18.0193 15.3984 17.8513 15.2304C17.6833 15.0624 17.5117 14.7292 17.5117 14.04H15.5117ZM19.0417 17.57C20.8929 17.57 22.3603 16.7032 23.3652 15.0988L21.6703 14.0372C21.0032 15.1021 20.1532 15.57 19.0417 15.57V17.57ZM23.5177 14.568V7.44H21.5177V14.568H23.5177ZM22.5177 8.44H24.7397V6.44H22.5177V8.44ZM23.7397 7.44V18H25.7397V7.44H23.7397ZM24.7397 17H22.5837V19H24.7397V17ZM23.5837 18V16.504H21.5837V18H23.5837ZM21.7993 15.8838C21.3966 16.3931 20.9343 16.7468 20.4102 16.9698L21.1933 18.8102C22.0478 18.4465 22.7735 17.8763 23.3681 17.1242L21.7993 15.8838ZM20.403 16.9729C19.8635 17.2075 19.2672 17.33 18.6017 17.33V19.33C19.5203 19.33 20.3906 19.1592 21.2005 18.8071L20.403 16.9729ZM31.6611 17.89L31.2532 18.803L31.2648 18.8082L31.2765 18.8131L31.6611 17.89ZM29.7471 16.46L30.4871 15.7873L28.7471 13.8734V16.46H29.7471ZM29.7471 18V19H30.7471V18H29.7471ZM27.5911 18H26.5911V19H27.5911V18ZM27.5911 1.742V0.742H26.5911V1.742H27.5911ZM29.8131 1.742H30.8131V0.742H29.8131V1.742ZM29.8131 8.848H28.8131V11.5779L30.5765 9.49394L29.8131 8.848ZM31.6831 7.55L32.0421 8.48335L32.0421 8.48334L31.6831 7.55ZM36.9851 7.836L36.4841 8.70143L36.493 8.70659L36.5021 8.71158L36.9851 7.836ZM38.9651 9.816L38.0895 10.2991L38.096 10.3105L38.9651 9.816ZM38.9651 15.69L38.096 15.1955L38.0931 15.2005L38.9651 15.69ZM36.9851 17.648L37.4629 18.5265L37.4682 18.5236L36.9851 17.648ZM35.5771 16.108L36.0513 16.9885L36.0591 16.9842L35.5771 16.108ZM36.9411 14.744L36.0742 14.2455L36.0695 14.2538L36.0649 14.2621L36.9411 14.744ZM36.9411 10.74L36.0649 11.2219L36.0695 11.2302L36.0742 11.2385L36.9411 10.74ZM35.5771 9.376L35.0858 10.247L35.0952 10.2522L35.5771 9.376ZM31.2431 9.618L31.8097 10.442L31.8097 10.442L31.2431 9.618ZM29.8131 11.554L28.8577 11.2587L28.8131 11.403V11.554H29.8131ZM29.8131 13.93H28.8131V14.0979L28.8679 14.2565L29.8131 13.93ZM31.2431 15.866L30.6602 16.6785L30.6702 16.6857L30.6803 16.6926L31.2431 15.866ZM34.1471 17.33C33.2939 17.33 32.6015 17.1985 32.0457 16.9669L31.2765 18.8131C32.1287 19.1682 33.0937 19.33 34.1471 19.33V17.33ZM32.0691 16.977C31.5239 16.7334 30.9952 16.3462 30.4871 15.7873L29.0072 17.1327C29.6724 17.8644 30.4197 18.4306 31.2532 18.803L32.0691 16.977ZM28.7471 16.46V18H30.7471V16.46H28.7471ZM29.7471 17H27.5911V19H29.7471V17ZM28.5911 18V1.742H26.5911V18H28.5911ZM27.5911 2.742H29.8131V0.742H27.5911V2.742ZM28.8131 1.742V8.848H30.8131V1.742H28.8131ZM30.5765 9.49394C30.9424 9.06159 31.4217 8.72197 32.0421 8.48335L31.3242 6.61665C30.4192 6.9647 29.6519 7.49041 29.0497 8.20206L30.5765 9.49394ZM32.0421 8.48334C32.6817 8.23736 33.3804 8.11 34.1471 8.11V6.11C33.1539 6.11 32.2099 6.27597 31.3242 6.61665L32.0421 8.48334ZM34.1471 8.11C35.0441 8.11 35.8143 8.31366 36.4841 8.70143L37.4862 6.97057C36.4839 6.39033 35.3622 6.11 34.1471 6.11V8.11ZM36.5021 8.71158C37.1875 9.08974 37.7114 9.61366 38.0896 10.2991L39.8407 9.33292C39.2802 8.317 38.4841 7.52093 37.4682 6.96042L36.5021 8.71158ZM38.096 10.3105C38.484 10.9925 38.6911 11.7935 38.6911 12.742H40.6911C40.6911 11.4905 40.4143 10.3408 39.8343 9.32148L38.096 10.3105ZM38.6911 12.742C38.6911 13.7077 38.4829 14.5154 38.096 15.1955L39.8343 16.1845C40.4154 15.1632 40.6911 14.0056 40.6911 12.742H38.6911ZM38.0931 15.2005C37.7163 15.8718 37.192 16.3918 36.5021 16.7724L37.4682 18.5236C38.4796 17.9656 39.2753 17.1802 39.8371 16.1795L38.0931 15.2005ZM36.5074 16.7695C35.8335 17.136 35.0549 17.33 34.1471 17.33V19.33C35.3514 19.33 36.4647 19.0694 37.4629 18.5265L36.5074 16.7695ZM33.6411 17.57C34.5074 17.57 35.3185 17.383 36.0512 16.9885L35.103 15.2275C34.6917 15.449 34.2122 15.57 33.6411 15.57V17.57ZM36.0591 16.9842C36.8119 16.5702 37.4033 15.9787 37.8173 15.2259L36.0649 14.2621C35.8336 14.6826 35.5157 15.0005 35.0952 15.2318L36.0591 16.9842ZM37.808 15.2425C38.2415 14.4886 38.4471 13.646 38.4471 12.742H36.4471C36.4471 13.334 36.3154 13.8261 36.0742 14.2455L37.808 15.2425ZM38.4471 12.742C38.4471 11.838 38.2415 10.9954 37.808 10.2415L36.0742 11.2385C36.3154 11.6579 36.4471 12.15 36.4471 12.742H38.4471ZM37.8173 10.2581C37.4033 9.50525 36.8119 8.91384 36.0591 8.49978L35.0952 10.2522C35.5157 10.4835 35.8336 10.8014 36.0649 11.2219L37.8173 10.2581ZM36.0685 8.50502C35.3326 8.08995 34.5153 7.892 33.6411 7.892V9.892C34.2043 9.892 34.6776 10.0167 35.0858 10.247L36.0685 8.50502ZM33.6411 7.892C32.5543 7.892 31.5554 8.18975 30.6766 8.79396L31.8097 10.442C32.3388 10.0782 32.9386 9.892 33.6411 9.892V7.892ZM30.6766 8.79396C29.7896 9.40379 29.1744 10.2343 28.8577 11.2587L30.7685 11.8493C30.9506 11.2604 31.2887 10.8002 31.8097 10.442L30.6766 8.79396ZM28.8131 11.554V13.93H30.8131V11.554H28.8131ZM28.8679 14.2565C29.2122 15.253 29.8125 16.0704 30.6602 16.6785L31.826 15.0535C31.3244 14.6936 30.9714 14.2204 30.7583 13.6035L28.8679 14.2565ZM30.6803 16.6926C31.5506 17.2851 32.55 17.57 33.6411 17.57V15.57C32.9136 15.57 32.3143 15.3855 31.8059 15.0394L30.6803 16.6926ZM42.1146 1.742V0.742H41.1146V1.742H42.1146ZM44.3366 1.742H45.3366V0.742H44.3366V1.742ZM44.3366 18V19H45.3366V18H44.3366ZM42.1146 18H41.1146V19H42.1146V18ZM42.1146 2.742H44.3366V0.742H42.1146V2.742ZM43.3366 1.742V18H45.3366V1.742H43.3366ZM44.3366 17H42.1146V19H44.3366V17ZM43.1146 18V1.742H41.1146V18H43.1146ZM47.5804 4.998L46.8733 5.70511L46.8733 5.70511L47.5804 4.998ZM47.5804 3.15L48.2875 3.85711L48.2875 3.85711L47.5804 3.15ZM49.4504 3.15L48.7433 3.85711L48.7534 3.86721L48.7637 3.87701L49.4504 3.15ZM49.4504 4.998L48.7637 4.27099L48.7534 4.28079L48.7433 4.29089L49.4504 4.998ZM47.3824 7.44V6.44H46.3824V7.44H47.3824ZM49.6484 7.44H50.6484V6.44H49.6484V7.44ZM49.6484 18V19H50.6484V18H49.6484ZM47.3824 18H46.3824V19H47.3824V18ZM48.5044 4.372C48.3911 4.372 48.3411 4.34451 48.2875 4.29089L46.8733 5.70511C47.3183 6.15016 47.8843 6.372 48.5044 6.372V4.372ZM48.2875 4.29089C48.2339 4.23728 48.2064 4.18724 48.2064 4.074H46.2064C46.2064 4.69409 46.4282 5.26006 46.8733 5.70511L48.2875 4.29089ZM48.2064 4.074C48.2064 3.96075 48.2339 3.91072 48.2875 3.85711L46.8733 2.44289C46.4282 2.88794 46.2064 3.45391 46.2064 4.074H48.2064ZM48.2875 3.85711C48.3411 3.80349 48.3911 3.776 48.5044 3.776V1.776C47.8843 1.776 47.3183 1.99784 46.8733 2.44289L48.2875 3.85711ZM48.5044 3.776C48.6443 3.776 48.6977 3.81153 48.7433 3.85711L50.1575 2.44289C49.7044 1.98981 49.1271 1.776 48.5044 1.776V3.776ZM48.7637 3.87701C48.8255 3.93536 48.8464 3.97942 48.8464 4.074H50.8464C50.8464 3.43524 50.6032 2.86331 50.137 2.42299L48.7637 3.87701ZM48.8464 4.074C48.8464 4.16858 48.8255 4.21264 48.7637 4.27099L50.137 5.72501C50.6032 5.28469 50.8464 4.71275 50.8464 4.074H48.8464ZM48.7433 4.29089C48.6977 4.33647 48.6443 4.372 48.5044 4.372V6.372C49.1271 6.372 49.7044 6.15819 50.1575 5.70511L48.7433 4.29089ZM47.3824 8.44H49.6484V6.44H47.3824V8.44ZM48.6484 7.44V18H50.6484V7.44H48.6484ZM49.6484 17H47.3824V19H49.6484V17ZM48.3824 18V7.44H46.3824V18H48.3824ZM55.1484 17.67L55.5839 16.7698L55.5839 16.7698L55.1484 17.67ZM53.0144 15.756L52.1517 16.2617L52.1568 16.2705L52.1622 16.2793L53.0144 15.756ZM53.0144 9.75L52.1582 9.23333L52.1555 9.23772L53.0144 9.75ZM55.1484 7.792L54.7069 6.89472L54.7012 6.89757L55.1484 7.792ZM62.1884 8.056H63.1884V7.514L62.7342 7.21814L62.1884 8.056ZM62.1884 9.882L61.6192 10.7042L63.1884 11.7906V9.882H62.1884ZM55.6104 9.882L56.271 10.6327L56.272 10.6318L55.6104 9.882ZM55.6104 15.602L56.271 14.8513L56.271 14.8513L55.6104 15.602ZM62.3204 15.514H63.3204V13.6597L61.771 14.6784L62.3204 15.514ZM62.3204 17.318L62.8859 18.1427L63.3204 17.8448V17.318H62.3204ZM60.5604 18.088L60.3229 17.1166L60.3178 17.1179L60.5604 18.088ZM58.2724 17.33C57.2256 17.33 56.3372 17.1343 55.5839 16.7698L54.7128 18.5702C55.7782 19.0857 56.9725 19.33 58.2724 19.33V17.33ZM55.5839 16.7698C54.8412 16.4105 54.2768 15.9008 53.8665 15.2327L52.1622 16.2793C52.7786 17.2832 53.6368 18.0495 54.7128 18.5702L55.5839 16.7698ZM53.8771 15.2503C53.483 14.578 53.2664 13.7543 53.2664 12.742H51.2664C51.2664 14.0471 51.5484 15.2327 52.1517 16.2617L53.8771 15.2503ZM53.2664 12.742C53.2664 11.7292 53.4831 10.9162 53.8732 10.2623L52.1555 9.23772C51.5483 10.2558 51.2664 11.4375 51.2664 12.742H53.2664ZM53.8706 10.2667C54.2837 9.58203 54.8514 9.05851 55.5956 8.68643L54.7012 6.89757C53.6266 7.43483 52.7717 8.21663 52.1582 9.23333L53.8706 10.2667ZM55.5899 8.68926C56.3569 8.31186 57.2579 8.11 58.3164 8.11V6.11C56.9988 6.11 55.7879 6.36281 54.7069 6.89474L55.5899 8.68926ZM58.3164 8.11C59.8098 8.11 60.8894 8.40318 61.6425 8.89386L62.7342 7.21814C61.5514 6.44748 60.0496 6.11 58.3164 6.11V8.11ZM61.1884 8.056V9.882H63.1884V8.056H61.1884ZM62.7576 9.05981C61.596 8.25562 60.1647 7.892 58.5364 7.892V9.892C59.8707 9.892 60.8741 10.1884 61.6192 10.7042L62.7576 9.05981ZM58.5364 7.892C57.1426 7.892 55.9153 8.27928 54.9487 9.13216L56.272 10.6318C56.8014 10.1647 57.5248 9.892 58.5364 9.892V7.892ZM54.9497 9.13129C53.9417 10.0184 53.5104 11.2826 53.5104 12.742H55.5104C55.5104 11.6788 55.8124 11.0363 56.271 10.6327L54.9497 9.13129ZM53.5104 12.742C53.5104 14.2014 53.9417 15.4656 54.9497 16.3527L56.271 14.8513C55.8124 14.4477 55.5104 13.8052 55.5104 12.742H53.5104ZM54.9497 16.3527C55.9031 17.1916 57.1161 17.57 58.4924 17.57V15.57C57.4926 15.57 56.7843 15.303 56.271 14.8513L54.9497 16.3527ZM58.4924 17.57C60.1377 17.57 61.6117 17.1768 62.8698 16.3496L61.771 14.6784C60.8877 15.2592 59.8097 15.57 58.4924 15.57V17.57ZM61.3204 15.514V17.318H63.3204V15.514H61.3204ZM61.7548 16.4933C61.3499 16.771 60.8764 16.9813 60.3229 17.1166L60.7978 19.0594C61.5644 18.872 62.2642 18.569 62.8859 18.1427L61.7548 16.4933ZM60.3178 17.1179C59.7726 17.2542 59.0952 17.33 58.2724 17.33V19.33C59.2095 19.33 60.0575 19.2445 60.8029 19.0581L60.3178 17.1179ZM65.3342 17.362L64.6798 18.1182L64.6876 18.1249L64.6954 18.1314L65.3342 17.362ZM65.2902 11.994L65.9422 12.7522L65.9434 12.7512L65.2902 11.994ZM72.1542 11.906L71.6527 12.7711L73.1542 13.6416V11.906H72.1542ZM71.3842 9.508L70.7485 10.2799L70.7608 10.2901L70.7734 10.2998L71.3842 9.508ZM67.1162 9.09L67.3077 10.0715L67.3167 10.0697L67.3257 10.0678L67.1162 9.09ZM65.4882 9.596H64.4882V11.149L65.902 10.5064L65.4882 9.596ZM65.4882 7.792L65.0653 6.88582L64.4882 7.15514V7.792H65.4882ZM67.2042 7.308L67.3686 8.29439L67.3786 8.29273L67.3885 8.29087L67.2042 7.308ZM73.1222 8.276L72.4413 9.00834L72.4479 9.01451L72.4547 9.02057L73.1222 8.276ZM74.3982 18V19H75.3982V18H74.3982ZM72.3082 18H71.3082V19H72.3082V18ZM72.3082 16.812H73.3082V14.231L71.5692 16.1382L72.3082 16.812ZM70.6802 17.956L71.0554 18.883L71.0663 18.8784L70.6802 17.956ZM70.8782 16.218L71.3162 17.117L71.3162 17.117L70.8782 16.218ZM72.1542 15.052L73.0271 15.5398L73.1542 15.3125V15.052H72.1542ZM72.1542 13.622H73.1542V13.0776L72.6969 12.7821L72.1542 13.622ZM67.0502 13.204L67.668 13.9903L67.6716 13.9875L67.0502 13.204ZM68.4142 17.33C67.3086 17.33 66.5277 17.0532 65.973 16.5926L64.6954 18.1314C65.6953 18.9615 66.9678 19.33 68.4142 19.33V17.33ZM65.9886 16.6058C65.4701 16.1571 65.1902 15.5587 65.1902 14.7H63.1902C63.1902 16.0706 63.673 17.2469 64.6798 18.1182L65.9886 16.6058ZM65.1902 14.7C65.1902 13.7501 65.4765 13.1527 65.9422 12.7522L64.6382 11.2358C63.6372 12.0967 63.1902 13.3032 63.1902 14.7H65.1902ZM65.9434 12.7512C66.451 12.3132 67.2429 12.026 68.4582 12.026V10.026C66.9455 10.026 65.6254 10.3841 64.637 11.2368L65.9434 12.7512ZM68.4582 12.026C69.7762 12.026 70.8258 12.2918 71.6527 12.7711L72.6557 11.0409C71.4586 10.3469 70.0442 10.026 68.4582 10.026V12.026ZM73.1542 11.906V11.356H71.1542V11.906H73.1542ZM73.1542 11.356C73.1542 10.308 72.8221 9.35429 71.995 8.71622L70.7734 10.2998C70.9729 10.4537 71.1542 10.732 71.1542 11.356H73.1542ZM72.0199 8.73607C71.2556 8.10665 70.1808 7.892 69.0082 7.892V9.892C70.0063 9.892 70.5154 10.088 70.7485 10.2799L72.0199 8.73607ZM69.0082 7.892C68.2942 7.892 67.5932 7.96508 66.9067 8.1122L67.3257 10.0678C67.8712 9.95091 68.4316 9.892 69.0082 9.892V7.892ZM66.9247 8.10851C66.2581 8.23858 65.6393 8.42887 65.0744 8.68563L65.902 10.5064C66.3051 10.3231 66.7716 10.1761 67.3077 10.0715L66.9247 8.10851ZM66.4882 9.596V7.792H64.4882V9.596H66.4882ZM65.9111 8.69818C66.2403 8.54455 66.7162 8.40312 67.3686 8.29439L67.0398 6.32161C66.2842 6.44755 65.6161 6.62878 65.0653 6.88582L65.9111 8.69818ZM67.3885 8.29087C68.0368 8.16931 68.657 8.11 69.2502 8.11V6.11C68.5234 6.11 67.7796 6.18269 67.0199 6.32513L67.3885 8.29087ZM69.2502 8.11C70.8725 8.11 71.8673 8.47462 72.4413 9.00834L73.8031 7.54366C72.7051 6.52271 71.1185 6.11 69.2502 6.11V8.11ZM72.4547 9.02057C73.0528 9.55682 73.3982 10.326 73.3982 11.466H75.3982C75.3982 9.87796 74.893 8.52052 73.7897 7.53143L72.4547 9.02057ZM73.3982 11.466V18H75.3982V11.466H73.3982ZM74.3982 17H72.3082V19H74.3982V17ZM73.3082 18V16.812H71.3082V18H73.3082ZM71.5692 16.1382C71.214 16.5279 70.7922 16.825 70.2941 17.0336L71.0663 18.8784C71.8295 18.559 72.4931 18.0935 73.0472 17.4858L71.5692 16.1382ZM70.305 17.0291C69.8417 17.2166 69.2222 17.33 68.4142 17.33V19.33C69.3956 19.33 70.2867 19.1941 71.0554 18.8829L70.305 17.0291ZM68.9642 17.636C69.8036 17.636 70.5938 17.4689 71.3162 17.117L70.4402 15.319C70.0186 15.5244 69.5328 15.636 68.9642 15.636V17.636ZM71.3162 17.117C72.05 16.7595 72.6377 16.2368 73.0271 15.5398L71.2813 14.5642C71.1134 14.8645 70.8504 15.1192 70.4402 15.319L71.3162 17.117ZM73.1542 15.052V13.622H71.1542V15.052H73.1542ZM72.6969 12.7821C71.5762 12.0579 70.3232 11.698 68.9642 11.698V13.698C69.9518 13.698 70.8255 13.9541 71.6115 14.4619L72.6969 12.7821ZM68.9642 11.698C68.0082 11.698 67.1064 11.8831 66.4288 12.4205L67.6716 13.9875C67.8446 13.8503 68.2189 13.698 68.9642 13.698V11.698ZM66.4324 12.4177C65.713 12.9829 65.4342 13.8159 65.4342 14.7H67.4342C67.4342 14.2348 67.5661 14.0704 67.668 13.9903L66.4324 12.4177ZM65.4342 14.7C65.4342 15.5819 65.7361 16.393 66.459 16.9462C67.1312 17.4605 68.0215 17.636 68.9642 17.636V15.636C68.2202 15.636 67.8455 15.4888 67.6744 15.3578C67.5539 15.2656 67.4342 15.1088 67.4342 14.7H65.4342ZM77.1556 7.44V6.44H76.1556V7.44H77.1556ZM79.3116 7.44H80.3116V6.44H79.3116V7.44ZM79.3116 9.332H78.3116V12.5738L80.1378 9.89534L79.3116 9.332ZM81.1596 7.902L80.8029 6.96776L80.7971 6.96999L81.1596 7.902ZM83.9536 7.44H84.9536V6.44H83.9536V7.44ZM83.9536 9.178V10.178H84.9536V9.178H83.9536ZM81.0496 9.728L80.6358 8.81763L80.6358 8.81763L81.0496 9.728ZM79.3776 11.466L78.4456 11.1036L78.3776 11.2784V11.466H79.3776ZM79.3776 18V19H80.3776V18H79.3776ZM77.1556 18H76.1556V19H77.1556V18ZM77.1556 8.44H79.3116V6.44H77.1556V8.44ZM78.3116 7.44V9.332H80.3116V7.44H78.3116ZM80.1378 9.89534C80.4539 9.43167 80.901 9.07553 81.522 8.834L80.7971 6.96999C79.8342 7.34446 79.0492 7.94166 78.4854 8.76866L80.1378 9.89534ZM81.5163 8.83622C82.1868 8.5802 82.9932 8.44 83.9536 8.44V6.44C82.802 6.44 81.7457 6.6078 80.8029 6.96778L81.5163 8.83622ZM82.9536 7.44V9.178H84.9536V7.44H82.9536ZM83.9536 8.178C82.7193 8.178 81.6029 8.37803 80.6358 8.81763L81.4634 10.6384C82.1096 10.3446 82.9292 10.178 83.9536 10.178V8.178ZM80.6358 8.81763C79.6028 9.28718 78.8526 10.057 78.4456 11.1036L80.3096 11.8284C80.5186 11.291 80.8831 10.9021 81.4634 10.6384L80.6358 8.81763ZM78.3776 11.466V18H80.3776V11.466H78.3776ZM79.3776 17H77.1556V19H79.3776V17ZM78.1556 18V7.44H76.1556V18H78.1556Z" fill="black" mask="url(#path-1-outside-1_11002_1231)"/>
<path d="M1.9173 2.622V1.622H0.917305V2.622H1.9173ZM11.7513 3.876L11.092 4.62786L11.0981 4.63323L11.1043 4.63851L11.7513 3.876ZM11.7733 10.938L12.4124 11.7072L12.4192 11.7014L11.7733 10.938ZM4.1613 12.126V11.126H3.1613V12.126H4.1613ZM4.1613 18V19H5.1613V18H4.1613ZM1.9173 18H0.917305V19H1.9173V18ZM10.0353 9.618L10.6128 10.4344L10.6128 10.4344L10.0353 9.618ZM10.0353 5.174L9.44479 5.98103L9.45128 5.98578L9.45784 5.99042L10.0353 5.174ZM4.1613 4.514V3.514H3.1613V4.514H4.1613ZM4.1613 10.256H3.1613V11.256H4.1613V10.256ZM1.9173 3.622H7.83531V1.622H1.9173V3.622ZM7.83531 3.622C9.32606 3.622 10.3711 3.99568 11.092 4.62786L12.4106 3.12414C11.2249 2.08432 9.65922 1.622 7.83531 1.622V3.622ZM11.1043 4.63851C11.8031 5.23143 12.2033 6.09928 12.2033 7.396H14.2033C14.2033 5.64205 13.6355 4.16324 12.3983 3.11349L11.1043 4.63851ZM12.2033 7.396C12.2033 8.73484 11.8025 9.60331 11.1274 10.1746L12.4192 11.7014C13.6507 10.6594 14.2033 9.1665 14.2033 7.396H12.2033ZM11.1343 10.1688C10.4146 10.7667 9.3555 11.126 7.83531 11.126V13.126C9.65911 13.126 11.2253 12.6933 12.4123 11.7072L11.1343 10.1688ZM7.83531 11.126H4.1613V13.126H7.83531V11.126ZM3.1613 12.126V18H5.1613V12.126H3.1613ZM4.1613 17H1.9173V19H4.1613V17ZM2.9173 18V2.622H0.917305V18H2.9173ZM7.5933 11.256C8.74772 11.256 9.7878 11.0179 10.6128 10.4344L9.45784 8.80158C9.08014 9.06874 8.49222 9.256 7.5933 9.256V11.256ZM10.6128 10.4344C11.5817 9.7491 11.9373 8.62644 11.9373 7.396H9.93731C9.93731 8.27756 9.69162 8.63623 9.45784 8.80158L10.6128 10.4344ZM11.9373 7.396C11.9373 6.16556 11.5817 5.0429 10.6128 4.35758L9.45784 5.99042C9.69162 6.15577 9.93731 6.51444 9.93731 7.396H11.9373ZM10.6258 4.36697C9.79908 3.76204 8.75378 3.514 7.5933 3.514V5.514C8.48616 5.514 9.06886 5.70596 9.44479 5.98103L10.6258 4.36697ZM7.5933 3.514H4.1613V5.514H7.5933V3.514ZM3.1613 4.514V10.256H5.1613V4.514H3.1613ZM4.1613 11.256H7.5933V9.256H4.1613V11.256ZM15.3677 17.186L14.6399 17.8718L14.6469 17.8791L15.3677 17.186ZM14.2897 7.44V6.44H13.2897V7.44H14.2897ZM16.5117 7.44H17.5117V6.44H16.5117V7.44ZM22.5177 14.568L23.3652 15.0988L23.5177 14.8553V14.568H22.5177ZM22.5177 7.44V6.44H21.5177V7.44H22.5177ZM24.7397 7.44H25.7397V6.44H24.7397V7.44ZM24.7397 18V19H25.7397V18H24.7397ZM22.5837 18H21.5837V19H22.5837V18ZM22.5837 16.504H23.5837V13.627L21.7993 15.8838L22.5837 16.504ZM20.8017 17.89L20.4102 16.9698L20.403 16.9729L20.8017 17.89ZM18.6017 17.33C17.3539 17.33 16.5752 16.999 16.0886 16.4929L14.6469 17.8791C15.6269 18.8983 17.0042 19.33 18.6017 19.33V17.33ZM16.0955 16.5002C15.5881 15.9617 15.2897 15.2076 15.2897 14.128H13.2897C13.2897 15.6004 13.71 16.8849 14.6399 17.8718L16.0955 16.5002ZM15.2897 14.128V7.44H13.2897V14.128H15.2897ZM14.2897 8.44H16.5117V6.44H14.2897V8.44ZM15.5117 7.44V14.04H17.5117V7.44H15.5117ZM15.5117 14.04C15.5117 15.0375 15.7618 15.9693 16.4371 16.6446C17.1125 17.32 18.0442 17.57 19.0417 17.57V15.57C18.3525 15.57 18.0193 15.3984 17.8513 15.2304C17.6833 15.0624 17.5117 14.7292 17.5117 14.04H15.5117ZM19.0417 17.57C20.8929 17.57 22.3603 16.7032 23.3652 15.0988L21.6703 14.0372C21.0032 15.1021 20.1532 15.57 19.0417 15.57V17.57ZM23.5177 14.568V7.44H21.5177V14.568H23.5177ZM22.5177 8.44H24.7397V6.44H22.5177V8.44ZM23.7397 7.44V18H25.7397V7.44H23.7397ZM24.7397 17H22.5837V19H24.7397V17ZM23.5837 18V16.504H21.5837V18H23.5837ZM21.7993 15.8838C21.3966 16.3931 20.9343 16.7468 20.4102 16.9698L21.1933 18.8102C22.0478 18.4465 22.7735 17.8763 23.3681 17.1242L21.7993 15.8838ZM20.403 16.9729C19.8635 17.2075 19.2672 17.33 18.6017 17.33V19.33C19.5203 19.33 20.3906 19.1592 21.2005 18.8071L20.403 16.9729ZM31.6611 17.89L31.2532 18.803L31.2648 18.8082L31.2765 18.8131L31.6611 17.89ZM29.7471 16.46L30.4871 15.7873L28.7471 13.8734V16.46H29.7471ZM29.7471 18V19H30.7471V18H29.7471ZM27.5911 18H26.5911V19H27.5911V18ZM27.5911 1.742V0.742H26.5911V1.742H27.5911ZM29.8131 1.742H30.8131V0.742H29.8131V1.742ZM29.8131 8.848H28.8131V11.5779L30.5765 9.49394L29.8131 8.848ZM31.6831 7.55L32.0421 8.48335L32.0421 8.48334L31.6831 7.55ZM36.9851 7.836L36.4841 8.70143L36.493 8.70659L36.5021 8.71158L36.9851 7.836ZM38.9651 9.816L38.0895 10.2991L38.096 10.3105L38.9651 9.816ZM38.9651 15.69L38.096 15.1955L38.0931 15.2005L38.9651 15.69ZM36.9851 17.648L37.4629 18.5265L37.4682 18.5236L36.9851 17.648ZM35.5771 16.108L36.0513 16.9885L36.0591 16.9842L35.5771 16.108ZM36.9411 14.744L36.0742 14.2455L36.0695 14.2538L36.0649 14.2621L36.9411 14.744ZM36.9411 10.74L36.0649 11.2219L36.0695 11.2302L36.0742 11.2385L36.9411 10.74ZM35.5771 9.376L35.0858 10.247L35.0952 10.2522L35.5771 9.376ZM31.2431 9.618L31.8097 10.442L31.8097 10.442L31.2431 9.618ZM29.8131 11.554L28.8577 11.2587L28.8131 11.403V11.554H29.8131ZM29.8131 13.93H28.8131V14.0979L28.8679 14.2565L29.8131 13.93ZM31.2431 15.866L30.6602 16.6785L30.6702 16.6857L30.6803 16.6926L31.2431 15.866ZM34.1471 17.33C33.2939 17.33 32.6015 17.1985 32.0457 16.9669L31.2765 18.8131C32.1287 19.1682 33.0937 19.33 34.1471 19.33V17.33ZM32.0691 16.977C31.5239 16.7334 30.9952 16.3462 30.4871 15.7873L29.0072 17.1327C29.6724 17.8644 30.4197 18.4306 31.2532 18.803L32.0691 16.977ZM28.7471 16.46V18H30.7471V16.46H28.7471ZM29.7471 17H27.5911V19H29.7471V17ZM28.5911 18V1.742H26.5911V18H28.5911ZM27.5911 2.742H29.8131V0.742H27.5911V2.742ZM28.8131 1.742V8.848H30.8131V1.742H28.8131ZM30.5765 9.49394C30.9424 9.06159 31.4217 8.72197 32.0421 8.48335L31.3242 6.61665C30.4192 6.9647 29.6519 7.49041 29.0497 8.20206L30.5765 9.49394ZM32.0421 8.48334C32.6817 8.23736 33.3804 8.11 34.1471 8.11V6.11C33.1539 6.11 32.2099 6.27597 31.3242 6.61665L32.0421 8.48334ZM34.1471 8.11C35.0441 8.11 35.8143 8.31366 36.4841 8.70143L37.4862 6.97057C36.4839 6.39033 35.3622 6.11 34.1471 6.11V8.11ZM36.5021 8.71158C37.1875 9.08974 37.7114 9.61366 38.0896 10.2991L39.8407 9.33292C39.2802 8.317 38.4841 7.52093 37.4682 6.96042L36.5021 8.71158ZM38.096 10.3105C38.484 10.9925 38.6911 11.7935 38.6911 12.742H40.6911C40.6911 11.4905 40.4143 10.3408 39.8343 9.32148L38.096 10.3105ZM38.6911 12.742C38.6911 13.7077 38.4829 14.5154 38.096 15.1955L39.8343 16.1845C40.4154 15.1632 40.6911 14.0056 40.6911 12.742H38.6911ZM38.0931 15.2005C37.7163 15.8718 37.192 16.3918 36.5021 16.7724L37.4682 18.5236C38.4796 17.9656 39.2753 17.1802 39.8371 16.1795L38.0931 15.2005ZM36.5074 16.7695C35.8335 17.136 35.0549 17.33 34.1471 17.33V19.33C35.3514 19.33 36.4647 19.0694 37.4629 18.5265L36.5074 16.7695ZM33.6411 17.57C34.5074 17.57 35.3185 17.383 36.0512 16.9885L35.103 15.2275C34.6917 15.449 34.2122 15.57 33.6411 15.57V17.57ZM36.0591 16.9842C36.8119 16.5702 37.4033 15.9787 37.8173 15.2259L36.0649 14.2621C35.8336 14.6826 35.5157 15.0005 35.0952 15.2318L36.0591 16.9842ZM37.808 15.2425C38.2415 14.4886 38.4471 13.646 38.4471 12.742H36.4471C36.4471 13.334 36.3154 13.8261 36.0742 14.2455L37.808 15.2425ZM38.4471 12.742C38.4471 11.838 38.2415 10.9954 37.808 10.2415L36.0742 11.2385C36.3154 11.6579 36.4471 12.15 36.4471 12.742H38.4471ZM37.8173 10.2581C37.4033 9.50525 36.8119 8.91384 36.0591 8.49978L35.0952 10.2522C35.5157 10.4835 35.8336 10.8014 36.0649 11.2219L37.8173 10.2581ZM36.0685 8.50502C35.3326 8.08995 34.5153 7.892 33.6411 7.892V9.892C34.2043 9.892 34.6776 10.0167 35.0858 10.247L36.0685 8.50502ZM33.6411 7.892C32.5543 7.892 31.5554 8.18975 30.6766 8.79396L31.8097 10.442C32.3388 10.0782 32.9386 9.892 33.6411 9.892V7.892ZM30.6766 8.79396C29.7896 9.40379 29.1744 10.2343 28.8577 11.2587L30.7685 11.8493C30.9506 11.2604 31.2887 10.8002 31.8097 10.442L30.6766 8.79396ZM28.8131 11.554V13.93H30.8131V11.554H28.8131ZM28.8679 14.2565C29.2122 15.253 29.8125 16.0704 30.6602 16.6785L31.826 15.0535C31.3244 14.6936 30.9714 14.2204 30.7583 13.6035L28.8679 14.2565ZM30.6803 16.6926C31.5506 17.2851 32.55 17.57 33.6411 17.57V15.57C32.9136 15.57 32.3143 15.3855 31.8059 15.0394L30.6803 16.6926ZM42.1146 1.742V0.742H41.1146V1.742H42.1146ZM44.3366 1.742H45.3366V0.742H44.3366V1.742ZM44.3366 18V19H45.3366V18H44.3366ZM42.1146 18H41.1146V19H42.1146V18ZM42.1146 2.742H44.3366V0.742H42.1146V2.742ZM43.3366 1.742V18H45.3366V1.742H43.3366ZM44.3366 17H42.1146V19H44.3366V17ZM43.1146 18V1.742H41.1146V18H43.1146ZM47.5804 4.998L46.8733 5.70511L46.8733 5.70511L47.5804 4.998ZM47.5804 3.15L48.2875 3.85711L48.2875 3.85711L47.5804 3.15ZM49.4504 3.15L48.7433 3.85711L48.7534 3.86721L48.7637 3.87701L49.4504 3.15ZM49.4504 4.998L48.7637 4.27099L48.7534 4.28079L48.7433 4.29089L49.4504 4.998ZM47.3824 7.44V6.44H46.3824V7.44H47.3824ZM49.6484 7.44H50.6484V6.44H49.6484V7.44ZM49.6484 18V19H50.6484V18H49.6484ZM47.3824 18H46.3824V19H47.3824V18ZM48.5044 4.372C48.3911 4.372 48.3411 4.34451 48.2875 4.29089L46.8733 5.70511C47.3183 6.15016 47.8843 6.372 48.5044 6.372V4.372ZM48.2875 4.29089C48.2339 4.23728 48.2064 4.18724 48.2064 4.074H46.2064C46.2064 4.69409 46.4282 5.26006 46.8733 5.70511L48.2875 4.29089ZM48.2064 4.074C48.2064 3.96075 48.2339 3.91072 48.2875 3.85711L46.8733 2.44289C46.4282 2.88794 46.2064 3.45391 46.2064 4.074H48.2064ZM48.2875 3.85711C48.3411 3.80349 48.3911 3.776 48.5044 3.776V1.776C47.8843 1.776 47.3183 1.99784 46.8733 2.44289L48.2875 3.85711ZM48.5044 3.776C48.6443 3.776 48.6977 3.81153 48.7433 3.85711L50.1575 2.44289C49.7044 1.98981 49.1271 1.776 48.5044 1.776V3.776ZM48.7637 3.87701C48.8255 3.93536 48.8464 3.97942 48.8464 4.074H50.8464C50.8464 3.43524 50.6032 2.86331 50.137 2.42299L48.7637 3.87701ZM48.8464 4.074C48.8464 4.16858 48.8255 4.21264 48.7637 4.27099L50.137 5.72501C50.6032 5.28469 50.8464 4.71275 50.8464 4.074H48.8464ZM48.7433 4.29089C48.6977 4.33647 48.6443 4.372 48.5044 4.372V6.372C49.1271 6.372 49.7044 6.15819 50.1575 5.70511L48.7433 4.29089ZM47.3824 8.44H49.6484V6.44H47.3824V8.44ZM48.6484 7.44V18H50.6484V7.44H48.6484ZM49.6484 17H47.3824V19H49.6484V17ZM48.3824 18V7.44H46.3824V18H48.3824ZM55.1484 17.67L55.5839 16.7698L55.5839 16.7698L55.1484 17.67ZM53.0144 15.756L52.1517 16.2617L52.1568 16.2705L52.1622 16.2793L53.0144 15.756ZM53.0144 9.75L52.1582 9.23333L52.1555 9.23772L53.0144 9.75ZM55.1484 7.792L54.7069 6.89472L54.7012 6.89757L55.1484 7.792ZM62.1884 8.056H63.1884V7.514L62.7342 7.21814L62.1884 8.056ZM62.1884 9.882L61.6192 10.7042L63.1884 11.7906V9.882H62.1884ZM55.6104 9.882L56.271 10.6327L56.272 10.6318L55.6104 9.882ZM55.6104 15.602L56.271 14.8513L56.271 14.8513L55.6104 15.602ZM62.3204 15.514H63.3204V13.6597L61.771 14.6784L62.3204 15.514ZM62.3204 17.318L62.8859 18.1427L63.3204 17.8448V17.318H62.3204ZM60.5604 18.088L60.3229 17.1166L60.3178 17.1179L60.5604 18.088ZM58.2724 17.33C57.2256 17.33 56.3372 17.1343 55.5839 16.7698L54.7128 18.5702C55.7782 19.0857 56.9725 19.33 58.2724 19.33V17.33ZM55.5839 16.7698C54.8412 16.4105 54.2768 15.9008 53.8665 15.2327L52.1622 16.2793C52.7786 17.2832 53.6368 18.0495 54.7128 18.5702L55.5839 16.7698ZM53.8771 15.2503C53.483 14.578 53.2664 13.7543 53.2664 12.742H51.2664C51.2664 14.0471 51.5484 15.2327 52.1517 16.2617L53.8771 15.2503ZM53.2664 12.742C53.2664 11.7292 53.4831 10.9162 53.8732 10.2623L52.1555 9.23772C51.5483 10.2558 51.2664 11.4375 51.2664 12.742H53.2664ZM53.8706 10.2667C54.2837 9.58203 54.8514 9.05851 55.5956 8.68643L54.7012 6.89757C53.6266 7.43483 52.7717 8.21663 52.1582 9.23333L53.8706 10.2667ZM55.5899 8.68926C56.3569 8.31186 57.2579 8.11 58.3164 8.11V6.11C56.9988 6.11 55.7879 6.36281 54.7069 6.89474L55.5899 8.68926ZM58.3164 8.11C59.8098 8.11 60.8894 8.40318 61.6425 8.89386L62.7342 7.21814C61.5514 6.44748 60.0496 6.11 58.3164 6.11V8.11ZM61.1884 8.056V9.882H63.1884V8.056H61.1884ZM62.7576 9.05981C61.596 8.25562 60.1647 7.892 58.5364 7.892V9.892C59.8707 9.892 60.8741 10.1884 61.6192 10.7042L62.7576 9.05981ZM58.5364 7.892C57.1426 7.892 55.9153 8.27928 54.9487 9.13216L56.272 10.6318C56.8014 10.1647 57.5248 9.892 58.5364 9.892V7.892ZM54.9497 9.13129C53.9417 10.0184 53.5104 11.2826 53.5104 12.742H55.5104C55.5104 11.6788 55.8124 11.0363 56.271 10.6327L54.9497 9.13129ZM53.5104 12.742C53.5104 14.2014 53.9417 15.4656 54.9497 16.3527L56.271 14.8513C55.8124 14.4477 55.5104 13.8052 55.5104 12.742H53.5104ZM54.9497 16.3527C55.9031 17.1916 57.1161 17.57 58.4924 17.57V15.57C57.4926 15.57 56.7843 15.303 56.271 14.8513L54.9497 16.3527ZM58.4924 17.57C60.1377 17.57 61.6117 17.1768 62.8698 16.3496L61.771 14.6784C60.8877 15.2592 59.8097 15.57 58.4924 15.57V17.57ZM61.3204 15.514V17.318H63.3204V15.514H61.3204ZM61.7548 16.4933C61.3499 16.771 60.8764 16.9813 60.3229 17.1166L60.7978 19.0594C61.5644 18.872 62.2642 18.569 62.8859 18.1427L61.7548 16.4933ZM60.3178 17.1179C59.7726 17.2542 59.0952 17.33 58.2724 17.33V19.33C59.2095 19.33 60.0575 19.2445 60.8029 19.0581L60.3178 17.1179ZM65.3342 17.362L64.6798 18.1182L64.6876 18.1249L64.6954 18.1314L65.3342 17.362ZM65.2902 11.994L65.9422 12.7522L65.9434 12.7512L65.2902 11.994ZM72.1542 11.906L71.6527 12.7711L73.1542 13.6416V11.906H72.1542ZM71.3842 9.508L70.7485 10.2799L70.7608 10.2901L70.7734 10.2998L71.3842 9.508ZM67.1162 9.09L67.3077 10.0715L67.3167 10.0697L67.3257 10.0678L67.1162 9.09ZM65.4882 9.596H64.4882V11.149L65.902 10.5064L65.4882 9.596ZM65.4882 7.792L65.0653 6.88582L64.4882 7.15514V7.792H65.4882ZM67.2042 7.308L67.3686 8.29439L67.3786 8.29273L67.3885 8.29087L67.2042 7.308ZM73.1222 8.276L72.4413 9.00834L72.4479 9.01451L72.4547 9.02057L73.1222 8.276ZM74.3982 18V19H75.3982V18H74.3982ZM72.3082 18H71.3082V19H72.3082V18ZM72.3082 16.812H73.3082V14.231L71.5692 16.1382L72.3082 16.812ZM70.6802 17.956L71.0554 18.883L71.0663 18.8784L70.6802 17.956ZM70.8782 16.218L71.3162 17.117L71.3162 17.117L70.8782 16.218ZM72.1542 15.052L73.0271 15.5398L73.1542 15.3125V15.052H72.1542ZM72.1542 13.622H73.1542V13.0776L72.6969 12.7821L72.1542 13.622ZM67.0502 13.204L67.668 13.9903L67.6716 13.9875L67.0502 13.204ZM68.4142 17.33C67.3086 17.33 66.5277 17.0532 65.973 16.5926L64.6954 18.1314C65.6953 18.9615 66.9678 19.33 68.4142 19.33V17.33ZM65.9886 16.6058C65.4701 16.1571 65.1902 15.5587 65.1902 14.7H63.1902C63.1902 16.0706 63.673 17.2469 64.6798 18.1182L65.9886 16.6058ZM65.1902 14.7C65.1902 13.7501 65.4765 13.1527 65.9422 12.7522L64.6382 11.2358C63.6372 12.0967 63.1902 13.3032 63.1902 14.7H65.1902ZM65.9434 12.7512C66.451 12.3132 67.2429 12.026 68.4582 12.026V10.026C66.9455 10.026 65.6254 10.3841 64.637 11.2368L65.9434 12.7512ZM68.4582 12.026C69.7762 12.026 70.8258 12.2918 71.6527 12.7711L72.6557 11.0409C71.4586 10.3469 70.0442 10.026 68.4582 10.026V12.026ZM73.1542 11.906V11.356H71.1542V11.906H73.1542ZM73.1542 11.356C73.1542 10.308 72.8221 9.35429 71.995 8.71622L70.7734 10.2998C70.9729 10.4537 71.1542 10.732 71.1542 11.356H73.1542ZM72.0199 8.73607C71.2556 8.10665 70.1808 7.892 69.0082 7.892V9.892C70.0063 9.892 70.5154 10.088 70.7485 10.2799L72.0199 8.73607ZM69.0082 7.892C68.2942 7.892 67.5932 7.96508 66.9067 8.1122L67.3257 10.0678C67.8712 9.95091 68.4316 9.892 69.0082 9.892V7.892ZM66.9247 8.10851C66.2581 8.23858 65.6393 8.42887 65.0744 8.68563L65.902 10.5064C66.3051 10.3231 66.7716 10.1761 67.3077 10.0715L66.9247 8.10851ZM66.4882 9.596V7.792H64.4882V9.596H66.4882ZM65.9111 8.69818C66.2403 8.54455 66.7162 8.40312 67.3686 8.29439L67.0398 6.32161C66.2842 6.44755 65.6161 6.62878 65.0653 6.88582L65.9111 8.69818ZM67.3885 8.29087C68.0368 8.16931 68.657 8.11 69.2502 8.11V6.11C68.5234 6.11 67.7796 6.18269 67.0199 6.32513L67.3885 8.29087ZM69.2502 8.11C70.8725 8.11 71.8673 8.47462 72.4413 9.00834L73.8031 7.54366C72.7051 6.52271 71.1185 6.11 69.2502 6.11V8.11ZM72.4547 9.02057C73.0528 9.55682 73.3982 10.326 73.3982 11.466H75.3982C75.3982 9.87796 74.893 8.52052 73.7897 7.53143L72.4547 9.02057ZM73.3982 11.466V18H75.3982V11.466H73.3982ZM74.3982 17H72.3082V19H74.3982V17ZM73.3082 18V16.812H71.3082V18H73.3082ZM71.5692 16.1382C71.214 16.5279 70.7922 16.825 70.2941 17.0336L71.0663 18.8784C71.8295 18.559 72.4931 18.0935 73.0472 17.4858L71.5692 16.1382ZM70.305 17.0291C69.8417 17.2166 69.2222 17.33 68.4142 17.33V19.33C69.3956 19.33 70.2867 19.1941 71.0554 18.8829L70.305 17.0291ZM68.9642 17.636C69.8036 17.636 70.5938 17.4689 71.3162 17.117L70.4402 15.319C70.0186 15.5244 69.5328 15.636 68.9642 15.636V17.636ZM71.3162 17.117C72.05 16.7595 72.6377 16.2368 73.0271 15.5398L71.2813 14.5642C71.1134 14.8645 70.8504 15.1192 70.4402 15.319L71.3162 17.117ZM73.1542 15.052V13.622H71.1542V15.052H73.1542ZM72.6969 12.7821C71.5762 12.0579 70.3232 11.698 68.9642 11.698V13.698C69.9518 13.698 70.8255 13.9541 71.6115 14.4619L72.6969 12.7821ZM68.9642 11.698C68.0082 11.698 67.1064 11.8831 66.4288 12.4205L67.6716 13.9875C67.8446 13.8503 68.2189 13.698 68.9642 13.698V11.698ZM66.4324 12.4177C65.713 12.9829 65.4342 13.8159 65.4342 14.7H67.4342C67.4342 14.2348 67.5661 14.0704 67.668 13.9903L66.4324 12.4177ZM65.4342 14.7C65.4342 15.5819 65.7361 16.393 66.459 16.9462C67.1312 17.4605 68.0215 17.636 68.9642 17.636V15.636C68.2202 15.636 67.8455 15.4888 67.6744 15.3578C67.5539 15.2656 67.4342 15.1088 67.4342 14.7H65.4342ZM77.1556 7.44V6.44H76.1556V7.44H77.1556ZM79.3116 7.44H80.3116V6.44H79.3116V7.44ZM79.3116 9.332H78.3116V12.5738L80.1378 9.89534L79.3116 9.332ZM81.1596 7.902L80.8029 6.96776L80.7971 6.96999L81.1596 7.902ZM83.9536 7.44H84.9536V6.44H83.9536V7.44ZM83.9536 9.178V10.178H84.9536V9.178H83.9536ZM81.0496 9.728L80.6358 8.81763L80.6358 8.81763L81.0496 9.728ZM79.3776 11.466L78.4456 11.1036L78.3776 11.2784V11.466H79.3776ZM79.3776 18V19H80.3776V18H79.3776ZM77.1556 18H76.1556V19H77.1556V18ZM77.1556 8.44H79.3116V6.44H77.1556V8.44ZM78.3116 7.44V9.332H80.3116V7.44H78.3116ZM80.1378 9.89534C80.4539 9.43167 80.901 9.07553 81.522 8.834L80.7971 6.96999C79.8342 7.34446 79.0492 7.94166 78.4854 8.76866L80.1378 9.89534ZM81.5163 8.83622C82.1868 8.5802 82.9932 8.44 83.9536 8.44V6.44C82.802 6.44 81.7457 6.6078 80.8029 6.96778L81.5163 8.83622ZM82.9536 7.44V9.178H84.9536V7.44H82.9536ZM83.9536 8.178C82.7193 8.178 81.6029 8.37803 80.6358 8.81763L81.4634 10.6384C82.1096 10.3446 82.9292 10.178 83.9536 10.178V8.178ZM80.6358 8.81763C79.6028 9.28718 78.8526 10.057 78.4456 11.1036L80.3096 11.8284C80.5186 11.291 80.8831 10.9021 81.4634 10.6384L80.6358 8.81763ZM78.3776 11.466V18H80.3776V11.466H78.3776ZM79.3776 17H77.1556V19H79.3776V17ZM78.1556 18V7.44H76.1556V18H78.1556Z" fill="black" fill-opacity="0.2" mask="url(#path-1-outside-1_11002_1231)"/>
</svg>
